<svg xmlns="http://www.w3.org/2000/svg" xmlns:xlink="http://www.w3.org/1999/xlink" width="500" zoomAndPan="magnify" viewBox="0 0 375 374.999991" height="500" preserveAspectRatio="xMidYMid meet" version="1.0"><defs><clipPath id="d4943e6354"><path d="M 55.503906 36.546875 L 314.957031 36.546875 L 314.957031 338.566406 L 55.503906 338.566406 Z M 55.503906 36.546875 " clip-rule="nonzero"/></clipPath><clipPath id="6982704123"><path d="M 185.230469 36.546875 L 314.957031 112.023438 L 314.957031 262.976562 L 185.230469 338.453125 L 55.503906 262.976562 L 55.503906 112.023438 Z M 185.230469 36.546875 " clip-rule="nonzero"/></clipPath><clipPath id="57cc3b8bc0"><path d="M 82.597656 68.074219 L 287.863281 68.074219 L 287.863281 307 L 82.597656 307 Z M 82.597656 68.074219 " clip-rule="nonzero"/></clipPath><clipPath id="13ed105af7"><path d="M 185.230469 68.074219 L 287.863281 127.785156 L 287.863281 247.214844 L 185.230469 306.925781 L 82.597656 247.214844 L 82.597656 127.785156 Z M 185.230469 68.074219 " clip-rule="nonzero"/></clipPath><clipPath id="21bf814ebf"><path d="M 259.363281 112.269531 L 375 112.269531 L 375 263.429688 L 259.363281 263.429688 Z M 259.363281 112.269531 " clip-rule="nonzero"/></clipPath><clipPath id="113a3d86b2"><path d="M 101.6875 90.710938 L 268.738281 90.710938 L 268.738281 285.164062 L 101.6875 285.164062 Z M 101.6875 90.710938 " clip-rule="nonzero"/></clipPath><clipPath id="c62a33516a"><path d="M 185.214844 90.710938 L 268.738281 139.304688 L 268.738281 236.496094 L 185.214844 285.09375 L 101.6875 236.496094 L 101.6875 139.304688 Z M 185.214844 90.710938 " clip-rule="nonzero"/></clipPath><clipPath id="522db47b9f"><path d="M 185.214844 167.199219 L 270.460938 167.199219 L 270.460938 187.902344 L 185.214844 187.902344 Z M 185.214844 167.199219 " clip-rule="nonzero"/></clipPath><clipPath id="2abf89df66"><path d="M 186 115 L 279 115 L 279 218 L 186 218 Z M 186 115 " clip-rule="nonzero"/></clipPath><clipPath id="2f3240c06c"><path d="M 154.566406 140.03125 L 217.488281 90.707031 L 278.566406 168.621094 L 215.644531 217.945312 Z M 154.566406 140.03125 " clip-rule="nonzero"/></clipPath><clipPath id="5fd7460b58"><path d="M 186.027344 115.367188 L 278.46875 168.496094 L 215.546875 217.820312 Z M 186.027344 115.367188 " clip-rule="nonzero"/></clipPath><clipPath id="7d386f332b"><path d="M 185.214844 170.6875 L 270.460938 170.6875 L 270.460938 262.625 L 185.214844 262.625 Z M 185.214844 170.6875 " clip-rule="nonzero"/></clipPath><clipPath id="2cb76acdba"><path d="M 185.214844 262.625 L 219.488281 262.625 L 219.488281 285.09375 L 185.214844 285.09375 Z M 185.214844 262.625 " clip-rule="nonzero"/></clipPath><clipPath id="a36da781f5"><path d="M 185.777344 154.265625 L 214.726562 154.265625 L 214.726562 176.734375 L 185.777344 176.734375 Z M 185.777344 154.265625 " clip-rule="nonzero"/></clipPath><clipPath id="1ab1eec048"><path d="M 180.203125 115.140625 L 191.363281 115.140625 L 191.363281 124.566406 L 180.203125 124.566406 Z M 180.203125 115.140625 " clip-rule="nonzero"/></clipPath><clipPath id="19ef372cf2"><path d="M 185.777344 115.140625 L 191.355469 124.566406 L 180.203125 124.566406 Z M 185.777344 115.140625 " clip-rule="nonzero"/></clipPath><clipPath id="ddb7f6a0eb"><path d="M 185.214844 123.5 L 197.5 123.5 L 197.5 170.6875 L 185.214844 170.6875 Z M 185.214844 123.5 " clip-rule="nonzero"/></clipPath><clipPath id="8ac9f5fa16"><path d="M 172.925781 115.140625 L 185.214844 115.140625 L 185.214844 162.328125 L 172.925781 162.328125 Z M 172.925781 115.140625 " clip-rule="nonzero"/></clipPath><clipPath id="d05a8b476a"><path d="M 252 137 L 287 137 L 287 172 L 252 172 Z M 252 137 " clip-rule="nonzero"/></clipPath><clipPath id="264d4192f2"><path d="M 269.453125 137.277344 L 286.828125 154.652344 L 269.472656 172.007812 L 252.097656 154.632812 Z M 269.453125 137.277344 " clip-rule="nonzero"/></clipPath><clipPath id="a771616cb6"><path d="M 154.984375 177.550781 L 265.941406 177.550781 L 265.941406 203.398438 L 154.984375 203.398438 Z M 154.984375 177.550781 " clip-rule="nonzero"/></clipPath><clipPath id="8d59e71757"><path d="M 253 170 L 295 170 L 295 217 L 253 217 Z M 253 170 " clip-rule="nonzero"/></clipPath><clipPath id="23594923be"><path d="M 268.578125 170.691406 L 294.210938 181.722656 L 279.171875 216.660156 L 253.542969 205.632812 Z M 268.578125 170.691406 " clip-rule="nonzero"/></clipPath><clipPath id="b79e61ff1e"><path d="M 185.777344 259.242188 L 225.128906 259.242188 L 225.128906 274.726562 L 185.777344 274.726562 Z M 185.777344 259.242188 " clip-rule="nonzero"/></clipPath></defs><rect x="-37.5" width="450" fill="#ffffff" y="-37.499999" height="449.999989" fill-opacity="1"/><rect x="-37.5" width="450" fill="#000000" y="-37.499999" height="449.999989" fill-opacity="1"/><g clip-path="url(#d4943e6354)"><g clip-path="url(#6982704123)"><path fill="#ffffff" d="M 55.503906 36.546875 L 314.957031 36.546875 L 314.957031 338.566406 L 55.503906 338.566406 Z M 55.503906 36.546875 " fill-opacity="1" fill-rule="nonzero"/></g></g><g clip-path="url(#57cc3b8bc0)"><g clip-path="url(#13ed105af7)"><path fill="#000000" d="M 82.597656 68.074219 L 287.863281 68.074219 L 287.863281 307.015625 L 82.597656 307.015625 Z M 82.597656 68.074219 " fill-opacity="1" fill-rule="nonzero"/></g></g><g clip-path="url(#21bf814ebf)"><path fill="#000000" d="M 259.363281 112.269531 L 430.597656 112.269531 L 430.597656 263.429688 L 259.363281 263.429688 Z M 259.363281 112.269531 " fill-opacity="1" fill-rule="nonzero"/></g><g clip-path="url(#113a3d86b2)"><g clip-path="url(#c62a33516a)"><path fill="#ffffff" d="M 101.6875 90.710938 L 268.738281 90.710938 L 268.738281 285.164062 L 101.6875 285.164062 Z M 101.6875 90.710938 " fill-opacity="1" fill-rule="nonzero"/></g></g><g clip-path="url(#522db47b9f)"><path fill="#ffffff" d="M 185.214844 167.199219 L 270.449219 167.199219 L 270.449219 187.902344 L 185.214844 187.902344 Z M 185.214844 167.199219 " fill-opacity="1" fill-rule="nonzero"/></g><g clip-path="url(#2abf89df66)"><g clip-path="url(#2f3240c06c)"><g clip-path="url(#5fd7460b58)"><path fill="#000000" d="M 154.566406 140.03125 L 217.488281 90.707031 L 278.375 168.375 L 215.453125 217.699219 Z M 154.566406 140.03125 " fill-opacity="1" fill-rule="nonzero"/></g></g></g><g clip-path="url(#7d386f332b)"><path fill="#000000" d="M 185.214844 170.6875 L 270.460938 170.6875 L 270.460938 262.59375 L 185.214844 262.59375 Z M 185.214844 170.6875 " fill-opacity="1" fill-rule="nonzero"/></g><g clip-path="url(#2cb76acdba)"><path fill="#000000" d="M 185.214844 262.625 L 219.53125 262.625 L 219.53125 285.09375 L 185.214844 285.09375 Z M 185.214844 262.625 " fill-opacity="1" fill-rule="nonzero"/></g><g clip-path="url(#a36da781f5)"><path fill="#000000" d="M 185.777344 154.265625 L 214.742188 154.265625 L 214.742188 176.734375 L 185.777344 176.734375 Z M 185.777344 154.265625 " fill-opacity="1" fill-rule="nonzero"/></g><g clip-path="url(#1ab1eec048)"><g clip-path="url(#19ef372cf2)"><path fill="#000000" d="M 180.203125 115.140625 L 191.363281 115.140625 L 191.363281 124.566406 L 180.203125 124.566406 Z M 180.203125 115.140625 " fill-opacity="1" fill-rule="nonzero"/></g></g><g clip-path="url(#ddb7f6a0eb)"><path fill="#000000" d="M 185.214844 123.5 L 197.5 123.5 L 197.5 170.675781 L 185.214844 170.675781 Z M 185.214844 123.5 " fill-opacity="1" fill-rule="nonzero"/></g><g clip-path="url(#8ac9f5fa16)"><path fill="#ffffff" d="M 172.925781 115.140625 L 185.214844 115.140625 L 185.214844 162.316406 L 172.925781 162.316406 Z M 172.925781 115.140625 " fill-opacity="1" fill-rule="nonzero"/></g><g clip-path="url(#d05a8b476a)"><g clip-path="url(#264d4192f2)"><path fill="#000000" d="M 269.453125 137.277344 L 286.808594 154.632812 L 269.453125 171.988281 L 252.097656 154.632812 Z M 269.453125 137.277344 " fill-opacity="1" fill-rule="nonzero"/></g></g><g clip-path="url(#a771616cb6)"><path fill="#ffffff" d="M 154.984375 177.550781 L 265.953125 177.550781 L 265.953125 203.398438 L 154.984375 203.398438 Z M 154.984375 177.550781 " fill-opacity="1" fill-rule="nonzero"/></g><g clip-path="url(#8d59e71757)"><g clip-path="url(#23594923be)"><path fill="#000000" d="M 268.578125 170.691406 L 294.210938 181.722656 L 279.171875 216.664062 L 253.542969 205.632812 Z M 268.578125 170.691406 " fill-opacity="1" fill-rule="nonzero"/></g></g><g clip-path="url(#b79e61ff1e)"><path fill="#000000" d="M 185.777344 259.242188 L 225.097656 259.242188 L 225.097656 274.726562 L 185.777344 274.726562 Z M 185.777344 259.242188 " fill-opacity="1" fill-rule="nonzero"/></g></svg>
